<?xml version="1.0" encoding="UTF-8"?>
<svg width="38px" height="38px" viewBox="0 0 38 38" version="1.1" xmlns="http://www.w3.org/2000/svg" xmlns:xlink="http://www.w3.org/1999/xlink">
    <title>icon-select</title>
    <defs>
        <path d="M4.711,1.274 L3.538,3.699 L0.916,4.091 C0.584,4.138 0.31,4.378 0.205,4.704 L0.205,4.704 C0.102,5.027 0.188,5.386 0.428,5.625 L0.428,5.625 L2.326,7.512 L1.878,10.176 C1.822,10.514 1.957,10.855 2.229,11.057 L2.229,11.057 C2.499,11.257 2.858,11.284 3.155,11.126 L3.155,11.126 L5.5,9.866 L7.844,11.123 C8.142,11.283 8.501,11.256 8.772,11.055 L8.772,11.055 C9.043,10.854 9.178,10.513 9.122,10.176 L9.122,10.176 L8.674,7.509 L10.572,5.622 C10.812,5.384 10.899,5.026 10.795,4.7 L10.795,4.7 C10.691,4.374 10.416,4.137 10.084,4.089 L10.084,4.089 L7.462,3.698 L6.29,1.273 C6.141,0.966 5.835,0.771 5.5,0.771 L5.5,0.771 C5.165,0.771 4.859,0.967 4.711,1.274 L4.711,1.274 Z M4.037,7.141 C4.058,7.007 4.016,6.868 3.924,6.773 L3.924,6.773 L2.594,5.38 L4.433,5.091 C4.559,5.072 4.668,4.987 4.725,4.864 L4.725,4.864 L5.548,3.074 L6.37,4.863 C6.427,4.986 6.536,5.072 6.663,5.091 L6.663,5.091 L8.501,5.379 L7.17,6.77 C7.079,6.865 7.037,7.005 7.059,7.14 L7.059,7.14 L7.374,9.107 L5.729,8.179 C5.615,8.115 5.48,8.115 5.367,8.179 L5.367,8.179 L3.723,9.108 L4.037,7.141 Z" id="path-1"></path>
        <path d="M2.725,1.864 C2.668,1.987 2.559,2.072 2.433,2.091 L2.433,2.091 L0.594,2.38 L1.924,3.773 C2.016,3.868 2.058,4.007 2.037,4.141 L2.037,4.141 L1.723,6.108 L3.367,5.179 C3.48,5.115 3.615,5.115 3.729,5.179 L3.729,5.179 L5.374,6.107 L5.059,4.14 C5.037,4.005 5.079,3.865 5.17,3.77 L5.17,3.77 L6.501,2.379 L4.663,2.091 C4.536,2.072 4.427,1.986 4.37,1.863 L4.37,1.863 L3.548,0.074 L2.725,1.864 Z" id="path-3"></path>
    </defs>
    <g id="Symbols" stroke="none" stroke-width="1" fill="none" fill-rule="evenodd">
        <g id="icon-select">
            <rect id="Bg" x="0" y="0" width="36" height="36"></rect>
            <g transform="translate(3.000000, 4.500000)">
                <g id="Group-9" transform="translate(0.000000, 0.680800)">
                    <path d="M16.4003,14 L29.8403,14 C30.5473,14 31.1203,14.573 31.1203,15.28 L31.1203,24.24 C31.1203,24.947 30.5473,25.52 29.8403,25.52 L27.6363,25.52 L26.6403,30 L24.1513,25.52 L16.4003,25.52 C15.6933,25.52 15.1203,24.947 15.1203,24.24 L15.1203,15.28 C15.1203,14.573 15.6933,14 16.4003,14" id="Fill-1" fill="#FFFFFF"></path>
                    <path d="M16.4003,14 L29.8403,14 C30.5473,14 31.1203,14.573 31.1203,15.28 L31.1203,24.24 C31.1203,24.947 30.5473,25.52 29.8403,25.52 L27.6363,25.52 L26.6403,30 L24.1513,25.52 L16.4003,25.52 C15.6933,25.52 15.1203,24.947 15.1203,24.24 L15.1203,15.28 C15.1203,14.573 15.6933,14 16.4003,14 Z" id="Stroke-3" stroke="#564E4A" stroke-width="2" stroke-linecap="round" stroke-linejoin="round"></path>
                    <path d="M22.9999,0.5 L1.9999,0.5 C0.8959,0.5 -0.0001,1.431 -0.0001,2.58 L-0.0001,17.14 C-0.0001,18.289 0.8959,19.22 1.9999,19.22 L5.4439,19.22 L6.9999,26.5 L10.8889,19.22 L22.9999,19.22 C24.1039,19.22 24.9999,18.289 24.9999,17.14 L24.9999,2.58 C24.9999,1.431 24.1039,0.5 22.9999,0.5" id="Fill-5" fill="#FFFFFF"></path>
                    <path d="M22.9999,0.5 L1.9999,0.5 C0.8959,0.5 -0.0001,1.431 -0.0001,2.58 L-0.0001,17.14 C-0.0001,18.289 0.8959,19.22 1.9999,19.22 L5.4439,19.22 L6.9999,26.5 L10.8889,19.22 L22.9999,19.22 C24.1039,19.22 24.9999,18.289 24.9999,17.14 L24.9999,2.58 C24.9999,1.431 24.1039,0.5 22.9999,0.5 Z" id="Stroke-7" stroke="#564E4A" stroke-width="2" stroke-linecap="round" stroke-linejoin="round"></path>
                </g>
                <g id="Group-12" transform="translate(7.000000, 3.680800)">
                    <mask id="mask-2" fill="white">
                        <use xlink:href="#path-1"></use>
                    </mask>
                    <g id="Clip-11"></g>
                    <polygon id="Fill-10" fill="#F06354" mask="url(#mask-2)" points="-4.838 16.228 15.838 16.228 15.838 -4.229 -4.838 -4.229"></polygon>
                </g>
                <g id="Group-15" transform="translate(9.000000, 6.680800)">
                    <mask id="mask-4" fill="white">
                        <use xlink:href="#path-3"></use>
                    </mask>
                    <g id="Clip-14"></g>
                    <polygon id="Fill-13" fill="#F06354" mask="url(#mask-4)" points="-4.406 11.108 11.502 11.108 11.502 -4.926 -4.406 -4.926"></polygon>
                </g>
            </g>
        </g>
    </g>
</svg>