<?xml version="1.0" encoding="UTF-8"?>
<svg width="48px" height="24px" viewBox="0 0 48 24" version="1.1" xmlns="http://www.w3.org/2000/svg" xmlns:xlink="http://www.w3.org/1999/xlink">
    <title>28B36D19-706C-4560-93D8-F721A507B122@1.00x</title>
    <g id="Symbols" stroke="none" stroke-width="1" fill="none" fill-rule="evenodd">
        <g id="vip-icook-logo">
            <g id="vip-text-regular" transform="translate(28.000000, 9.000000)">
                <polygon id="slice" points="0 0 19.125 0 19.125 8.5 0 8.5"></polygon>
                <path d="M9.79452422,0 C10.0789666,0 10.3149352,0.0933980374 10.494334,0.279043731 C10.6737731,0.464731048 10.7606983,0.738630014 10.7606983,1.09611054 L10.7606983,7.3984329 C10.7606983,7.75573678 10.6738626,8.03036318 10.4947812,8.21776263 C10.3154007,8.40547503 10.0792385,8.5 9.79452422,8.5 C9.52044299,8.5 9.28984092,8.40402117 9.11079038,8.21457218 C8.93213561,8.02554196 8.8453125,7.75196478 8.8453125,7.3984329 L8.8453125,1.09611054 C8.8453125,0.742639176 8.93110162,0.47003316 9.10792089,0.282744454 C9.28526938,0.0948951886 9.51689373,0 9.79452422,0 Z M6.59202703,0 C6.75615477,0 6.90959568,0.0399079119 7.05022498,0.119249223 C7.19004172,0.198132101 7.30075017,0.30392471 7.38080068,0.435464226 C7.46083577,0.566978409 7.50165988,0.702208121 7.50165988,0.839652405 C7.50165988,0.928885439 7.48921572,1.02395934 7.46459689,1.12493337 C7.44089078,1.22216389 7.41125108,1.31751065 7.37568291,1.41095183 C7.34201655,1.49939679 7.30834038,1.59057583 7.27379299,1.68681055 L5.2674646,6.9118041 C5.19541967,7.113068 5.12334684,7.30434273 5.05123825,7.48564027 C4.97660884,7.67327576 4.88975847,7.83900211 4.79046967,7.98273125 C4.68601578,8.13393732 4.54721846,8.25781353 4.37534387,8.35373772 C4.19978499,8.45171813 3.98819967,8.5 3.74234876,8.5 C3.49686058,8.5 3.28563197,8.45280371 3.11028357,8.35697957 C2.937798,8.26271991 2.79768535,8.13759391 2.69120457,7.98244629 C2.59024387,7.83534169 2.50253943,7.66891503 2.42795001,7.48327438 C2.35578612,7.30367048 2.28366562,7.11318504 2.21234933,6.91389074 L0.238313766,1.72814301 C0.204771091,1.63462789 0.170305561,1.54293477 0.134916941,1.45306092 C0.097056988,1.3569108 0.065308918,1.25350511 0.0396099781,1.14285466 C0.0133508627,1.0297923 0,0.932664085 0,0.850565517 C0,0.634056097 0.0901041476,0.436815091 0.265397111,0.263521201 C0.442512096,0.0884260678 0.667218223,0 0.932249348,0 C1.25499719,0 1.49487157,0.100134026 1.63780803,0.303762624 C1.76401656,0.483560454 1.88955954,0.762501555 2.01708191,1.14288879 C2.76918052,3.29191164 3.33325447,4.90367878 3.70930377,5.97819021 C3.72539159,6.02415904 3.74952332,6.05179538 3.78169895,6.06109925 C3.81293413,6.0541165 3.83636051,6.02822099 3.8519781,5.98341272 C4.22992817,4.8990399 4.79685328,3.27248067 5.55275343,1.10373503 C5.6517129,0.817230211 5.72605822,0.617624883 5.77665953,0.503054704 C5.83347771,0.374408471 5.9263855,0.259725298 6.05371468,0.159373279 C6.18977571,0.0521394246 6.37060162,0 6.59202703,0 Z M15.9028306,0.136413904 C16.549881,0.136413904 17.0499283,0.184671366 17.4044996,0.282440784 C17.7607452,0.377940132 18.0698224,0.53714925 18.3303831,0.75981275 C18.5910638,0.98257871 18.7891927,1.25545546 18.9241355,1.57719406 C19.0582223,1.89689203 19.125,2.2551267 19.125,2.65122905 C19.125,3.49794345 18.851284,4.14779517 18.3024461,4.59109777 C17.75822,5.0306754 16.9572789,5.24789253 15.9028306,5.24789253 L14.4829646,5.24789253 L14.4829646,7.3984329 C14.4829646,7.74843253 14.3950324,8.02119569 14.2146181,8.21188778 C14.0337596,8.40304949 13.8022629,8.5 13.5280987,8.5 C13.2429203,8.5 13.0072829,8.40419568 12.8297513,8.21406307 C12.653431,8.02522781 12.5675787,7.75545222 12.5675787,7.40934601 L12.5675787,1.24343756 C12.5675787,0.858241593 12.6622911,0.573876923 12.8595184,0.396230253 C13.0542974,0.220788831 13.3519754,0.136413904 13.7486095,0.136413904 L15.9028306,0.136413904 Z M15.4957337,1.46715636 L14.4871875,1.46715636 L14.4871875,3.91169352 L15.4957337,3.91169352 C15.8915243,3.91169352 16.2222873,3.87167917 16.4880324,3.79164928 C16.7537775,3.71161939 16.9563816,3.58066335 17.0958507,3.39877724 C17.2353198,3.21689113 17.3050533,2.97862389 17.3050533,2.68396838 C17.3050533,2.33110932 17.197626,2.04373357 16.9827682,1.82183251 C16.7415244,1.58538056 16.2458512,1.46715636 15.4957337,1.46715636 Z" id="↳-color" fill="#564E4A" fill-rule="nonzero"></path>
            </g>
            <g id="icook-logo-regular">
                <polygon id="slice" points="0 0 24 0 24 24 0 24"></polygon>
                <path d="M5.24344569,9.98149143 C6.47654827,9.87139299 13.0824549,8.99060543 14.4696953,9.12272357 C15.8789554,9.2548417 20.5251098,9.49705828 21.5820549,10.5319837 C22.6610196,11.566909 23.2995906,13.3505038 22.8591968,15.8387287 C22.4848621,18.2829141 17.112058,20.0665089 15.5046207,20.2646861 C13.8751637,20.484883 9.88960005,20.6390209 7.48945396,20.0665089 C5.06728818,19.4719773 2.46896489,18.8554261 1.63221672,17.4021266 C0.795468538,15.9268074 0.94960636,14.8698624 1.19182294,13.5266613 C1.74231516,10.6420821 3.15157525,10.1796686 5.24344569,9.98149143 Z M20.6572279,11.7430665 C19.7544207,10.6420821 15.5926995,10.5319837 13.0163959,10.5980427 C10.4400923,10.6641018 6.34443014,11.1485349 4.45073689,11.3246925 C3.24185597,11.4237811 2.81775677,12.2541435 2.74502573,12.4192251 L2.73320116,12.4476966 C2.73320116,12.4476966 2.35886645,13.7248385 2.35886645,14.5836064 C2.31482707,15.7506499 2.55704365,16.8956737 4.01034312,17.5562644 C6.41048921,18.6132095 11.1887617,19.2958198 14.3375772,19.0315836 C17.464373,18.7453276 21.2517595,17.1378903 21.4499367,15.6625712 C21.6481139,14.187252 21.5600352,12.844051 20.6572279,11.7430665 Z M6.96098143,14.8922192 C7.00502081,14.7380814 7.00502081,13.2847819 8.4142809,13.7251757 C9.16295032,13.9673923 8.92073374,14.8041405 9.53728503,15.4867508 C10.175856,16.1693612 12.3778249,16.5436959 14.0513213,16.3895581 C15.7468373,16.2134005 16.4514673,14.8261601 16.4294477,14.3197073 C16.3854083,13.7912348 16.4955067,14.2756679 17.0019596,14.3197073 C17.9047668,14.4298057 18.2130425,15.6629083 17.5524518,16.6537943 C16.4955067,18.3493104 11.8933917,18.5034482 9.53728503,17.8208378 C6.87290267,17.0061093 6.93896174,15.0683767 6.96098143,14.8922192 Z M4.38467783,12.8664078 C4.38467783,12.8664078 5.00122912,12.4920731 5.52970165,12.6021716 C6.10221356,12.6902503 6.10221356,13.4609394 6.10221356,13.4609394 C6.10221356,13.4609394 5.85999698,15.3766524 5.52970165,15.7950265 C5.22142601,16.1693612 5.13334725,16.3455187 4.38467783,16.0812824 C3.63600841,15.7950265 3.39379183,15.4867508 3.52590996,14.8922192 C3.65802809,14.341727 3.79014623,13.7912348 4.38467783,12.8664078 Z M11.5410767,13.2187229 C12.9943762,12.1837975 13.9412228,13.7692151 14.0513213,14.0334513 C14.1834394,14.341727 14.2274788,15.3105933 13.3026518,15.4427114 C12.3778249,15.5968493 11.4970373,15.4427114 11.6071358,14.694042 C11.7172342,13.9453726 11.5410767,13.2187229 11.5410767,13.2187229 Z M18.3892,12.2498565 C18.3892,12.2498565 19.6223025,11.7654234 20.2828932,12.9765063 C20.9434839,14.1875892 20.4590507,14.8261601 20.4590507,14.8261601 C20.4590507,14.8261601 20.6572279,15.4427114 19.2920072,14.8701995 C19.2920072,14.8701995 18.3231409,14.4298057 18.3892,12.2498565 Z M9.53728503,4.22509015 C9.53728503,4.22509015 13.8531441,3.71863731 14.425656,4.22509015 C14.9761482,4.75356269 12.7521596,6.53715749 12.9943762,6.58119686 C16.5395461,6.97755127 20.4590507,8.01247664 20.4590507,8.01247664 L20.4590507,8.01247664 L19.8645191,8.60700824 C12.1356083,7.74824038 3.23965401,9.17952015 3.23965401,9.17952015 C3.23965401,9.17952015 0.0247794262,9.42173673 2.93137836,8.32075229 C5.90403636,7.21976784 10.5501907,6.42705904 10.9905845,6.27292122 C11.4089586,6.1187834 9.53728503,4.22509015 9.53728503,4.22509015 Z" id="↳-color" fill="#564E4A" fill-rule="nonzero"></path>
            </g>
        </g>
    </g>
</svg>