<?xml version="1.0" encoding="UTF-8"?>
<svg width="150px" height="150px" viewBox="0 0 150 150" version="1.1" xmlns="http://www.w3.org/2000/svg" xmlns:xlink="http://www.w3.org/1999/xlink">
    <title>416F8095-4CA3-490C-9E47-B2C82C138CA1@3.00x</title>
    <defs>
        <linearGradient x1="13.0843367%" y1="50%" x2="0%" y2="50%" id="linearGradient-1">
            <stop stop-color="#EEEBE6" offset="0%"></stop>
            <stop stop-color="#EEEBE6" stop-opacity="0" offset="100%"></stop>
        </linearGradient>
    </defs>
    <g id="_ILLUSTRATION_彩色" stroke="none" stroke-width="1" fill="none" fill-rule="evenodd">
        <g id="ILLUS-/-illustration-vip-fp-entry-150x150" fill-rule="nonzero">
            <g id="dishes" transform="translate(1.000000, 10.000000)">
                <polygon id="Path" fill="#FF7979" points="63.64 66.12 65.52 109.64 110.04 109.64 103.6 61.6"></polygon>
                <path d="M101.32,64.68 L105.4,79.4 L117.4,79.4 C117.4,79.4 118,70.4 117.4,66.12 C116.64,60.56 114.6,42.36 89.2,42 C88.96,42 88.76,42 88.52,42 C58.84,39.88 57.4,52.36 54,66.6 C52.96,71 52.68,75.36 52.36,79.4 L63.24,79.04 L67.68,68" id="Path" fill="#FF7979"></path>
                <path d="M94,31.4 C94,31.4 91.64,36.52 95.2,42.48 C95.2,42.48 93.64,46.68 88.48,46.16 C83.28,45.68 81.48,41.76 81.48,41.76 C81.48,41.76 81.36,40.6 80,39.84" id="Path" fill="#FCECC4"></path>
                <path d="M147.92,110.64 L1.6,110.64 C1.04,110.64 0.6,110.2 0.6,109.64 C0.6,109.08 1.04,108.64 1.6,108.64 L147.92,108.64 C148.48,108.64 148.92,109.08 148.92,109.64 C148.92,110.2 148.48,110.64 147.92,110.64 Z" id="Path" fill="url(#linearGradient-1)"></path>
                <path d="M147.92,110.64 L1.6,110.64 C1.04,110.64 0.6,110.2 0.6,109.64 C0.6,109.08 1.04,108.64 1.6,108.64 L147.92,108.64 C148.48,108.64 148.92,109.08 148.92,109.64 C148.92,110.2 148.48,110.64 147.92,110.64 Z" id="Path" fill="url(#linearGradient-1)"></path>
                <circle id="Oval" fill="#FCECC4" cx="80" cy="24.04" r="15.84"></circle>
                <path d="M93.36,32.52 C93.6,32.16 93.8,31.8 94,31.4 L93.56,31.64 C93.52,31.96 93.44,32.24 93.36,32.52 Z" id="Path" fill="#F6E5C7"></path>
                <path d="M93.36,32.52 C90.56,36.96 85.6,39.88 80,39.88 C81.4,40.64 81.48,41.8 81.48,41.8 C81.48,41.8 81.8,42.48 82.56,43.36 C87.76,41.84 91.88,37.72 93.36,32.52 L93.36,32.52 Z" id="Path" fill="#F4D8A9"></path>
                <circle id="Oval" fill="#554E49" transform="translate(80.042928, 28.559668) rotate(-16.367231) translate(-80.042928, -28.559668) " cx="80.042928" cy="28.559668" r="1.68004325"></circle>
                <circle id="Oval" fill="#554E49" transform="translate(70.602448, 28.558100) rotate(-16.367231) translate(-70.602448, -28.558100) " cx="70.602448" cy="28.5581" r="1.68004325"></circle>
                <path d="M75.48,32.28 C75.28,32.28 75.08,32.2 74.96,32 L74.08,30.56 C73.92,30.28 74,29.92 74.28,29.72 C74.56,29.56 74.92,29.64 75.12,29.92 L76,31.36 C76.16,31.64 76.08,32 75.8,32.2 C75.72,32.24 75.6,32.28 75.48,32.28 L75.48,32.28 Z" id="Path" fill="#F7C852"></path>
                <path d="M66.24,22.36 C69.52,23.28 77.64,26.56 85.08,20.52 C88.44,17.8 90.68,20.88 90,22.96 C89.32,25.16 90.52,27.64 95.6,27.28 C95.6,27.28 101.16,23.72 98.52,16.04 C97.12,11.88 94.64,12.4 93.68,11.12 C90.6,7 82,-1.52 68.52,9.96 C65.8,12.28 63.76,14 58.88,15.24 C57.88,15.48 56.76,15.72 55.52,15.92 C55.6,15.88 62.96,21.44 66.24,22.36 L66.24,22.36 Z" id="Path" fill="#554E49"></path>
                <circle id="Oval" fill="#FCECC4" cx="94.32" cy="28.56" r="2.84"></circle>
                <path d="M105.4,84.96 L105.4,85.04 C105.4,85 105.4,85 105.4,84.96 Z" id="Path" fill="#BBB9B4"></path>
                <path d="M71.68,84.96 L71.68,85.04 C71.68,85 71.72,85 71.68,84.96 Z" id="Path" fill="#BBB9B4"></path>
                <path d="M88.56,82.84 C79.44,82.84 72.04,83.8 71.72,84.96 L105.36,84.96 C105.04,83.8 97.64,82.84 88.56,82.84 L88.56,82.84 Z" id="Path" fill="#A19A95"></path>
                <path d="M105.36,84.96 L71.72,84.96 L71.72,85.04 L71.72,85.08 C71.76,86.28 79.28,87.28 88.56,87.28 C97.84,87.28 105.36,86.28 105.4,85.08 C105.4,85.08 105.4,85.08 105.4,85.04 C105.4,85 105.36,85 105.36,84.96 Z" id="Path" fill="#A19A95"></path>
                <path d="M103.96,75.24 C103.8,75.24 103.64,75.12 103.56,74.96 L100.92,64.8 C100.88,64.6 101,64.36 101.2,64.32 C101.4,64.28 101.64,64.4 101.68,64.6 L104.32,74.76 C104.36,74.96 104.24,75.2 104.04,75.24 C104,75.24 104,75.24 103.96,75.24 Z" id="Path" fill="#F04646"></path>
                <path d="M45.88,121.8 L24.52,121.8 C23,121.8 21.64,120.72 21.32,119.2 L15,89.2 C14.56,87.16 16.12,85.28 18.2,85.28 L39.56,85.28 C41.08,85.28 42.44,86.36 42.76,87.88 L49.08,117.92 C49.48,119.92 47.96,121.8 45.88,121.8 L45.88,121.8 Z" id="Path" fill="#FBE1A9"></path>
                <path d="M34.72,126.12 L16.44,126.12 C15.76,126.12 15.32,125.36 15.64,124.76 L28.92,100.92 C29.32,100.2 30.44,100.36 30.6,101.16 L35.64,125 C35.76,125.6 35.32,126.12 34.72,126.12 L34.72,126.12 Z" id="Path" fill="#F9D688"></path>
                <path d="M77.76,37.12 C77.28,37.12 76.8,37 76.32,36.76 C75.56,36.4 74.96,35.84 74.68,35.24 C74.56,34.92 74.68,34.6 74.96,34.44 L79.4,32.4 C79.56,32.32 79.72,32.32 79.84,32.4 C80,32.44 80.12,32.56 80.16,32.72 C80.68,33.88 80.32,36.2 78.72,36.92 C78.48,37.08 78.12,37.12 77.76,37.12 Z M76.12,35.24 C76.32,35.4 76.52,35.56 76.8,35.72 C77.32,35.96 77.88,36 78.24,35.84 C78.92,35.52 79.2,34.56 79.2,33.84 L76.12,35.24 Z" id="Shape" fill="#F7C852"></path>
                <path d="M85,88.48 C84.52,88.48 84.08,88.2 83.88,87.72 L76.88,70.24 C76.64,69.64 76.92,68.92 77.56,68.68 C78.16,68.44 78.88,68.72 79.12,69.36 L86.12,86.84 C86.36,87.44 86.08,88.16 85.44,88.4 C85.32,88.44 85.16,88.48 85,88.48 Z" id="Path" fill="#F7C852"></path>
                <path d="M49.88,38.8 C49.88,28.92 41.88,20.96 32.04,20.96 C22.16,20.96 14.2,28.96 14.2,38.8 C14.2,46.88 19.56,53.72 26.96,55.92 L32.08,71.08 L37.2,55.92 C44.52,53.72 49.88,46.88 49.88,38.8 Z" id="Path" fill="#EEEBE6"></path>
                <polygon id="Path" fill="#FF7979" points="22.6 36.88 22.6 35.4 29.08 35.4 29.08 36.88 26.72 36.88 26.72 43.36 25 43.36 25 36.88"></polygon>
                <polygon id="Path" fill="#FF7979" points="32.88 35.4 32.88 43.32 31.12 43.32 31.12 35.4"></polygon>
                <path d="M39.08,35.4 C39.56,35.4 40,35.48 40.36,35.6 C40.72,35.72 41,35.92 41.2,36.16 C41.4,36.4 41.56,36.68 41.68,36.96 C41.8,37.24 41.84,37.56 41.84,37.92 C41.84,38.24 41.8,38.56 41.68,38.84 C41.6,39.16 41.44,39.4 41.2,39.64 C40.96,39.88 40.68,40.08 40.36,40.2 C40,40.36 39.6,40.4 39.08,40.4 L37.24,40.4 L37.24,43.24 L35.48,43.24 L35.48,35.4 L39.08,35.4 Z M38.6,39.12 C38.8,39.12 39,39.12 39.16,39.08 C39.36,39.04 39.52,39 39.64,38.92 C39.8,38.84 39.88,38.72 39.96,38.56 C40.04,38.4 40.08,38.2 40.08,37.96 C40.08,37.72 40.04,37.52 39.96,37.36 C39.88,37.2 39.76,37.08 39.64,37 C39.48,36.92 39.32,36.84 39.16,36.84 C38.96,36.8 38.8,36.8 38.6,36.8 L37.24,36.8 L37.24,39.16 L38.6,39.16 L38.6,39.12 Z" id="Shape" fill="#FF7979"></path>
                <g id="Group" transform="translate(102.600000, 0.600000)" fill="#F7C852">
                    <path d="M7.08,21.4 C7,21.4 6.96,21.4 6.88,21.36 L2.8,20.4 C2.44,20.32 2.2,20.04 2.2,19.68 L2.08,17.88 C2.08,17.84 2.08,17.8 2.08,17.72 C2.2,16.8 1.96,15.88 1.4,15.04 C0.32,13.4 2.77555756e-16,11.4 0.52,9.52 C1.44,6.2 4.8,4.04 8.2,4.64 C10.08,4.96 11.68,6 12.72,7.56 C13.76,9.12 14.12,11.04 13.68,12.88 C13.24,14.72 12.12,16.24 10.52,17.2 C9.68,17.72 9.04,18.44 8.72,19.28 C8.72,19.32 8.68,19.36 8.64,19.4 L7.72,20.96 C7.64,21.28 7.36,21.4 7.08,21.4 L7.08,21.4 Z M3.76,19 L6.68,19.68 L7.24,18.72 C7.68,17.56 8.56,16.52 9.72,15.88 C10.96,15.16 11.8,14 12.16,12.6 C12.48,11.2 12.24,9.76 11.44,8.52 C10.64,7.32 9.4,6.52 7.96,6.28 C5.36,5.84 2.8,7.48 2.08,10.04 C1.68,11.48 1.92,13.04 2.76,14.28 C3.48,15.4 3.8,16.68 3.68,17.92 L3.76,19 Z" id="Shape"></path>
                    <path d="M6.48,24 C6.4,24 6.36,24 6.28,23.96 L2.2,23 C1.76,22.88 1.52,22.48 1.6,22.04 C1.72,21.6 2.12,21.36 2.56,21.44 L6.64,22.4 C7.08,22.52 7.32,22.92 7.24,23.36 C7.16,23.76 6.84,24 6.48,24 Z" id="Path"></path>
                    <path d="M5.88,26.6 C5.8,26.6 5.76,26.6 5.68,26.56 L1.6,25.6 C1.16,25.48 0.92,25.08 1,24.64 C1.12,24.2 1.52,23.96 1.96,24.04 L6.04,25 C6.48,25.12 6.72,25.52 6.64,25.96 C6.56,26.36 6.24,26.6 5.88,26.6 Z" id="Path"></path>
                    <path d="M13.8,4.44 C13.64,4.44 13.48,4.4 13.36,4.32 C13,4.08 12.88,3.6 13.12,3.2 L14.84,0.6 C15.08,0.24 15.56,0.12 15.96,0.36 C16.32,0.6 16.44,1.08 16.2,1.48 L14.48,4.08 C14.32,4.32 14.08,4.44 13.8,4.44 Z" id="Path"></path>
                    <path d="M16.4,7.84 C16.08,7.84 15.8,7.68 15.68,7.36 C15.48,6.96 15.68,6.48 16.08,6.32 L18.92,5.04 C19.32,4.84 19.8,5.04 19.96,5.44 C20.16,5.84 19.96,6.32 19.56,6.48 L16.72,7.76 C16.6,7.8 16.52,7.84 16.4,7.84 Z" id="Path"></path>
                    <path d="M20.16,12.36 C20.12,12.36 20.08,12.36 20,12.36 L16.92,11.8 C16.48,11.72 16.2,11.32 16.28,10.88 C16.36,10.44 16.76,10.16 17.2,10.24 L20.28,10.8 C20.72,10.88 21,11.28 20.92,11.72 C20.88,12.08 20.56,12.36 20.16,12.36 L20.16,12.36 Z" id="Path"></path>
                </g>
                <path d="M88.56,87.28 C79.28,87.28 71.76,86.28 71.72,85.08 C71.76,94.36 79.28,101.84 88.56,101.84 C97.84,101.84 105.36,94.36 105.4,85.08 C105.32,86.28 97.8,87.28 88.56,87.28 Z" id="Path" fill="#BBB9B4"></path>
                <path d="M77.52,79.08 C77.52,79.08 67.96,81.52 62.96,86.4 L64.16,78.24 L52.36,79.4 C52.36,79.4 50.76,100.24 58.84,99.16 C66.92,98.08 71.68,87.24 77.16,84 L77.52,79.08 Z" id="Path" fill="#FCECC4"></path>
                <path d="M83.48,75.96 C80.68,73.96 77.48,79.12 77.48,79.12 L77.16,84.08 C79.56,83.32 82.56,84.36 84.24,83.48 C86.4,82.4 86.28,77.96 83.48,75.96 L83.48,75.96 Z" id="Path" fill="#FCECC4"></path>
                <path d="M117.36,79.44 C117.36,79.44 117.88,94.56 112.56,97.44 C107.24,100.32 93.64,106.8 86.68,104.96 C83.04,104 82.44,102.68 81.8,101.6 C80.96,100.12 82.68,99.64 83.84,99.68 C85.44,99.72 89.08,100 91.08,101 C94.2,102.52 107.24,88.6 107.24,88.6 L105.4,79.48" id="Path" fill="#FCECC4"></path>
                <path d="M91.04,100.96 C91.04,100.96 90.36,99.2 87.88,98.44 C85.4,97.68 84.64,97.6 84.32,97.96 C84,98.32 84.48,99.32 86.48,99.88" id="Path" fill="#FCECC4"></path>
                <path d="M84.48,101.6 L81.6,101.6 C81.36,101.6 81.2,101.44 81.2,101.2 C81.2,100.96 81.36,100.8 81.6,100.8 L84.48,100.8 C84.72,100.8 84.88,100.96 84.88,101.2 C84.88,101.44 84.72,101.6 84.48,101.6 Z" id="Path" fill="#F7C852"></path>
                <path d="M84.48,103.32 L84.44,103.32 L82.48,103.12 C82.28,103.08 82.12,102.88 82.12,102.68 C82.16,102.48 82.32,102.28 82.56,102.32 L84.52,102.52 C84.72,102.56 84.88,102.76 84.88,102.96 C84.88,103.16 84.68,103.32 84.48,103.32 Z" id="Path" fill="#F7C852"></path>
                <polygon id="Path" fill="#FF9393" points="102.08 74.84 103.64 81.68 118 81.68 118.64 74.84"></polygon>
                <path d="M81.96,77.84 C81.8,77.84 81.68,77.76 81.6,77.6 C81.52,77.4 81.6,77.16 81.8,77.08 L83.76,76.16 C83.96,76.08 84.2,76.16 84.28,76.36 C84.36,76.56 84.28,76.8 84.08,76.88 L82.12,77.8 C82.08,77.84 82,77.84 81.96,77.84 Z" id="Path" fill="#F7C852"></path>
                <path d="M83.12,79.32 C82.96,79.32 82.84,79.24 82.76,79.08 C82.68,78.88 82.76,78.64 82.96,78.56 L84.92,77.64 C85.12,77.56 85.36,77.64 85.44,77.84 C85.52,78.04 85.44,78.28 85.24,78.36 L83.28,79.28 C83.2,79.28 83.16,79.32 83.12,79.32 Z" id="Path" fill="#F7C852"></path>
                <path d="M83.68,81.28 C83.52,81.28 83.4,81.2 83.32,81.04 C83.24,80.84 83.32,80.6 83.52,80.52 L85.48,79.6 C85.68,79.52 85.92,79.6 86,79.8 C86.08,80 86,80.24 85.8,80.32 L83.84,81.24 C83.8,81.24 83.72,81.28 83.68,81.28 Z" id="Path" fill="#F7C852"></path>
                <polygon id="Path" fill="#EEEBE6" points="114.52 102.08 131.04 102.08 131.04 123.16 114.52 123.16"></polygon>
                <polygon id="Path" fill="#E1DFDA" points="122.76 111.36 114.52 102.08 131.04 102.08"></polygon>
                <ellipse id="Oval" fill="#E1DFDA" transform="translate(64.901672, 121.121788) rotate(-62.450943) translate(-64.901672, -121.121788) " cx="64.901672" cy="121.121788" rx="4.83991726" ry="6.15989469"></ellipse>
                <polygon id="Path" fill="#EEEBE6" points="81.12 117.96 99.08 117.96 99.08 129.76 81.12 129.76"></polygon>
                <circle id="Oval" fill="#E1DFDA" cx="90.12" cy="123.88" r="3.68"></circle>
                <polygon id="Path" fill="#FF9393" points="51.28 74.84 50.48 81.68 64.32 81.48 64.16 74.84"></polygon>
                <path d="M64.16,75.24 C63.92,75.24 63.76,75.08 63.76,74.84 L63.76,65.64 C63.76,65.4 63.92,65.24 64.16,65.24 C64.4,65.24 64.56,65.4 64.56,65.64 L64.56,74.84 C64.56,75.08 64.36,75.24 64.16,75.24 Z" id="Path" fill="#F04646"></path>
            </g>
        </g>
    </g>
</svg>