<svg viewBox="0 0 109 40" fill="none" xmlns="http://www.w3.org/2000/svg" aria-labelledby="store-name" preserveAspectRatio="none">
<title id="store-name">App Store</title>
<g clip-path="url(#clip0)">
<path d="M99.3223 0H9.53468C9.16798 0 8.80568 0 8.43995 0.002C8.1338 0.004 7.83009 0.00981 7.521 0.0147C6.84951 0.0226018 6.17961 0.0816763 5.5171 0.19141C4.85552 0.303533 4.21467 0.514916 3.61622 0.81841C3.0185 1.12447 2.47235 1.52217 1.99757 1.99707C1.5203 2.47064 1.12246 3.01802 0.81935 3.61816C0.5154 4.21711 0.304641 4.85894 0.19435 5.52148C0.0830109 6.18318 0.0230984 6.85252 0.01515 7.52348C0.00587 7.83008 0.00489 8.1377 0 8.44434V31.5586C0.00489 31.8691 0.00587 32.1699 0.01515 32.4805C0.0231008 33.1514 0.0830134 33.8207 0.19435 34.4824C0.304336 35.1453 0.515108 35.7875 0.81935 36.3867C1.12233 36.9849 1.52022 37.5301 1.99757 38.001C2.47054 38.478 3.01705 38.876 3.61622 39.1797C4.21467 39.484 4.85545 39.6966 5.5171 39.8105C6.17972 39.9194 6.84956 39.9785 7.521 39.9873C7.83009 39.9941 8.1338 39.998 8.43995 39.998C8.80567 40 9.168 40 9.53468 40H99.3223C99.6817 40 100.047 40 100.406 39.998C100.711 39.998 101.023 39.9941 101.328 39.9873C101.998 39.9789 102.667 39.9198 103.328 39.8105C103.992 39.6958 104.635 39.4833 105.236 39.1797C105.835 38.8758 106.381 38.4778 106.854 38.001C107.33 37.5282 107.728 36.9835 108.035 36.3867C108.337 35.7871 108.546 35.1449 108.654 34.4824C108.766 33.8206 108.828 33.1515 108.84 32.4805C108.844 32.1699 108.844 31.8691 108.844 31.5586C108.852 31.1953 108.852 30.834 108.852 30.4648V9.53613C108.852 9.16992 108.852 8.80664 108.844 8.44434C108.844 8.1377 108.844 7.83008 108.84 7.52344C108.828 6.85242 108.766 6.18324 108.654 5.52144C108.546 4.85928 108.337 4.2175 108.035 3.61812C107.418 2.4152 106.439 1.43603 105.236 0.81832C104.635 0.515567 103.992 0.30424 103.328 0.19132C102.667 0.0811028 101.998 0.0220078 101.328 0.01456C101.023 0.00968 100.711 0.00382 100.406 0.00187C100.047 0 99.6817 0 99.3223 0Z" fill="#A6A6A6"/>
<path d="M8.44487 39.125C8.14019 39.125 7.84287 39.1211 7.54058 39.1143C6.91436 39.1061 6.2896 39.0516 5.67144 38.9512C5.09503 38.8519 4.53664 38.6673 4.0147 38.4033C3.49754 38.1415 3.02585 37.7983 2.6177 37.3867C2.20364 36.98 1.85891 36.5082 1.59719 35.9902C1.33258 35.4688 1.14945 34.9099 1.05419 34.333C0.951311 33.7131 0.895651 33.0863 0.887687 32.458C0.881347 32.2471 0.873047 31.5449 0.873047 31.5449V8.44434C0.873047 8.44434 0.881887 7.75293 0.887737 7.5498C0.895363 6.92248 0.950699 6.29665 1.05327 5.67773C1.14871 5.09925 1.33197 4.53875 1.59673 4.01563C1.85749 3.49794 2.2003 3.02586 2.61187 2.61768C3.02297 2.20562 3.49617 1.8606 4.01421 1.59521C4.53495 1.33209 5.09228 1.14873 5.66753 1.05127C6.28772 0.949836 6.91465 0.894996 7.54304 0.88721L8.44536 0.875H100.401L101.314 0.8877C101.937 0.895099 102.558 0.94945 103.173 1.05029C103.754 1.14898 104.317 1.33362 104.844 1.59814C105.882 2.13299 106.726 2.97916 107.259 4.01807C107.519 4.53758 107.7 5.09351 107.794 5.667C107.898 6.291 107.956 6.92175 107.968 7.55421C107.971 7.83741 107.971 8.14161 107.971 8.44435C107.979 8.81935 107.979 9.17628 107.979 9.53614V30.4648C107.979 30.8281 107.979 31.1826 107.971 31.54C107.971 31.8652 107.971 32.1631 107.967 32.4697C107.955 33.0909 107.898 33.7104 107.796 34.3232C107.703 34.9043 107.52 35.4675 107.256 35.9932C106.992 36.5056 106.65 36.9733 106.24 37.3789C105.832 37.7927 105.359 38.1379 104.841 38.4014C104.316 38.6674 103.753 38.8527 103.173 38.9512C102.555 39.0522 101.93 39.1067 101.304 39.1143C101.011 39.1211 100.704 39.125 100.406 39.125L99.3223 39.127L8.44487 39.125Z" fill="black"/>
<path d="M41.1674 16.5546H37.1158L36.1428 19.4276H34.4268L38.2643 8.79837H40.0473L43.8849 19.4276H42.1395L41.1674 16.5546ZM37.5354 15.2289H40.747L39.1638 10.5663H39.1195L37.5354 15.2289Z" fill="white"/>
<path d="M52.1728 15.5532C52.1728 17.9614 50.8838 19.5087 48.9387 19.5087C48.446 19.5344 47.9559 19.4209 47.5247 19.1812C47.0935 18.9414 46.7385 18.585 46.5004 18.1529H46.4636V21.9913H44.8729V11.678H46.4126V12.967H46.4419C46.691 12.5369 47.0519 12.1824 47.4864 11.9412C47.921 11.6999 48.4127 11.581 48.9095 11.597C50.8763 11.5969 52.1728 13.1517 52.1728 15.5532ZM50.5378 15.5532C50.5378 13.9842 49.727 12.9528 48.4898 12.9528C47.2745 12.9528 46.457 14.006 46.457 15.5532C46.457 17.1147 47.2745 18.1604 48.4898 18.1604C49.727 18.1604 50.5378 17.1364 50.5378 15.5532H50.5378Z" fill="white"/>
<path d="M60.7026 15.5532C60.7026 17.9614 59.4132 19.5087 57.4681 19.5087C56.9754 19.5344 56.4854 19.4209 56.0541 19.1812C55.6229 18.9414 55.2679 18.585 55.0298 18.1529H54.993V21.9913H53.4023V11.678H54.9421V12.967H54.9713C55.2204 12.5369 55.5814 12.1824 56.0159 11.9412C56.4504 11.6999 56.9422 11.581 57.4389 11.597C59.4057 11.5969 60.7026 13.1517 60.7026 15.5532ZM59.0672 15.5532C59.0672 13.9842 58.2564 12.9528 57.0192 12.9528C55.8039 12.9528 54.9864 14.006 54.9864 15.5532C54.9864 17.1147 55.8039 18.1604 57.0192 18.1604C58.2564 18.1604 59.0672 17.1364 59.0672 15.5532H59.0672Z" fill="white"/>
<path d="M66.339 16.466C66.4569 17.5201 67.4808 18.2122 68.8801 18.2122C70.2209 18.2122 71.1855 17.5201 71.1855 16.5697C71.1855 15.7447 70.6037 15.2507 69.2262 14.9121L67.8486 14.5802C65.8968 14.1088 64.9907 13.196 64.9907 11.7148C64.9907 9.88078 66.589 8.62114 68.8576 8.62114C71.1044 8.62114 72.6442 9.88083 72.696 11.7148H71.0902C70.9941 10.654 70.1172 10.0138 68.8358 10.0138C67.5544 10.0138 66.6776 10.6616 66.6776 11.6045C66.6776 12.356 67.2376 12.7981 68.6076 13.1367L69.7787 13.4242C71.9596 13.94 72.8648 14.816 72.8648 16.3708C72.8648 18.3593 71.2817 19.6048 68.7623 19.6048C66.4051 19.6048 64.8135 18.3886 64.7107 16.466L66.339 16.466Z" fill="white"/>
<path d="M76.2996 9.84407V11.6781H77.7733V12.9378H76.2996V17.21C76.2996 17.8737 76.5947 18.183 77.2425 18.183C77.4174 18.18 77.5921 18.1677 77.7658 18.1462V19.3984C77.4745 19.4528 77.1785 19.4775 76.8822 19.472C75.3132 19.472 74.7014 18.8827 74.7014 17.3797V12.9377H73.5746V11.678H74.7014V9.844L76.2996 9.84407Z" fill="white"/>
<path d="M78.6259 15.5532C78.6259 13.1149 80.0619 11.5827 82.3013 11.5827C84.5482 11.5827 85.9775 13.1149 85.9775 15.5532C85.9775 17.9982 84.5557 19.5237 82.3013 19.5237C80.0477 19.5237 78.6259 17.9982 78.6259 15.5532ZM84.3567 15.5532C84.3567 13.8806 83.5902 12.8934 82.3013 12.8934C81.0123 12.8934 80.2458 13.8881 80.2458 15.5532C80.2458 17.2325 81.0123 18.2122 82.3013 18.2122C83.5902 18.2122 84.3567 17.2325 84.3567 15.5532Z" fill="white"/>
<path d="M87.2891 11.678H88.8062V12.997H88.843C88.9456 12.585 89.1869 12.221 89.5264 11.966C89.8658 11.711 90.2827 11.5807 90.707 11.5969C90.8903 11.5962 91.0731 11.6161 91.252 11.6562V13.1441C91.0205 13.0734 90.7791 13.0409 90.5373 13.048C90.3062 13.0386 90.0758 13.0794 89.8619 13.1674C89.6481 13.2555 89.4558 13.3888 89.2983 13.5582C89.1409 13.7276 89.0219 13.929 88.9496 14.1488C88.8774 14.3685 88.8535 14.6012 88.8797 14.831V19.4276H87.2891V11.678Z" fill="white"/>
<path d="M98.5862 17.1515C98.4113 17.8838 97.9768 18.5278 97.3631 18.9641C96.7495 19.4004 95.9984 19.5992 95.2493 19.5237C92.9949 19.5237 91.5956 18.0133 91.5956 15.59C91.5956 13.1592 93.0024 11.5827 95.1824 11.5827C97.3265 11.5827 98.6748 13.0556 98.6748 15.4053V15.9503H93.2013V16.0464C93.1761 16.3316 93.2118 16.6189 93.3061 16.8893C93.4004 17.1596 93.5512 17.4068 93.7483 17.6144C93.9455 17.822 94.1846 17.9853 94.4497 18.0934C94.7148 18.2015 94.9999 18.252 95.2861 18.2415C95.662 18.2767 96.0392 18.1896 96.3616 17.9932C96.6841 17.7968 96.9345 17.5016 97.0757 17.1515L98.5862 17.1515ZM93.2089 14.8385H97.0832C97.0975 14.5821 97.0586 14.3255 96.969 14.0848C96.8794 13.8441 96.741 13.6245 96.5626 13.4398C96.3841 13.2551 96.1693 13.1093 95.9318 13.0115C95.6943 12.9138 95.4392 12.8662 95.1824 12.8717C94.9234 12.8701 94.6666 12.9199 94.4269 13.0181C94.1872 13.1163 93.9693 13.261 93.7858 13.4439C93.6024 13.6268 93.4569 13.8442 93.3579 14.0835C93.2588 14.3229 93.2082 14.5795 93.2089 14.8385V14.8385Z" fill="white"/>
<path d="M24.7689 20.3007C24.7796 19.466 25.0013 18.6476 25.4134 17.9217C25.8254 17.1957 26.4143 16.5858 27.1254 16.1486C26.6737 15.5035 26.0777 14.9725 25.3849 14.598C24.6921 14.2234 23.9215 14.0156 23.1343 13.9909C21.455 13.8147 19.8271 14.9958 18.9714 14.9958C18.0991 14.9958 16.7816 14.0084 15.3629 14.0376C14.4452 14.0673 13.5509 14.3341 12.767 14.8122C11.9831 15.2902 11.3364 15.9632 10.89 16.7655C8.95595 20.1139 10.3985 25.035 12.2511 27.7416C13.178 29.0669 14.2613 30.5474 15.6788 30.4949C17.0658 30.4374 17.5839 29.6104 19.2582 29.6104C20.9169 29.6104 21.403 30.4949 22.8492 30.4615C24.3376 30.4373 25.2753 29.1303 26.1697 27.7924C26.8357 26.848 27.3481 25.8043 27.6881 24.6999C26.8234 24.3341 26.0855 23.7219 25.5664 22.9396C25.0472 22.1574 24.7699 21.2395 24.7689 20.3007V20.3007Z" fill="white"/>
<path d="M22.0372 12.2109C22.8487 11.2367 23.2485 9.9845 23.1517 8.72027C21.9119 8.85049 20.7666 9.44305 19.9441 10.3799C19.542 10.8375 19.234 11.37 19.0378 11.9467C18.8415 12.5235 18.7609 13.1333 18.8004 13.7413C19.4206 13.7477 20.0341 13.6132 20.5947 13.3482C21.1554 13.0831 21.6486 12.6942 22.0372 12.2109Z" fill="white"/>
<path d="M34.4399 23.888V24.456H37.4959V30.816H38.0799V26.272C38.7999 26.656 39.6959 27.2 40.7599 27.904L41.1039 27.392C40.0799 26.736 39.0719 26.16 38.0799 25.664V24.456H41.5519V23.888H34.4399Z" fill="white"/>
<path d="M42.9279 23.96V24.424H44.3759V24.984H42.4239V25.464H47.0239C47.0719 26.392 47.1599 27.184 47.2959 27.824C47.3759 28.224 47.4639 28.592 47.5759 28.928C47.3039 29.344 46.9999 29.688 46.6559 29.96V29.552H44.9039V29.12H46.3839V26.856H44.9039V26.44H46.6719V26.008H44.9039V25.632H44.3759V26.008H42.6079V26.44H44.3759V26.856H42.9199V29.12H44.3759V29.552H42.5039V30.024H44.3759V30.768H44.9039V30.024H46.5679L46.4239 30.12L46.7199 30.576C47.1199 30.328 47.4799 29.984 47.8079 29.552C47.8879 29.728 47.9679 29.896 48.0639 30.04C48.3759 30.528 48.6639 30.776 48.9359 30.776C49.2559 30.776 49.4959 30.2 49.6719 29.064L49.1999 28.808C49.0879 29.688 48.9759 30.136 48.8479 30.136C48.7199 30.136 48.5599 29.936 48.3599 29.552C48.2799 29.408 48.2079 29.232 48.1439 29.032C48.5599 28.296 48.8959 27.344 49.1519 26.192L48.6639 25.976C48.4799 26.872 48.2319 27.648 47.9279 28.296C47.8799 28.104 47.8319 27.904 47.7919 27.68C47.6879 27.128 47.6159 26.392 47.5759 25.464H49.5679V24.984H47.5519C47.5359 24.52 47.5199 24.024 47.5199 23.48H46.9759C46.9759 24.008 46.9839 24.504 46.9999 24.984H44.9359V24.424H46.3439V23.96H44.9359V23.472H44.3759V23.96H42.9279ZM48.3519 23.528L47.9359 23.792C48.3039 24.184 48.5919 24.544 48.7999 24.872L49.2159 24.576C49.0159 24.272 48.7279 23.928 48.3519 23.528ZM45.8879 28.704H44.8799V28.16H45.8879V28.704ZM44.4159 28.704H43.4159V28.16H44.4159V28.704ZM43.4159 27.784V27.264H44.4159V27.784H43.4159ZM44.8799 27.264H45.8879V27.784H44.8799V27.264Z" fill="white"/>
</g>
<defs>
<clipPath id="clip0">
<rect width="108.852" height="40" fill="white"/>
</clipPath>
</defs>
</svg>
