<svg viewBox="0 0 135 40" fill="none" xmlns="http://www.w3.org/2000/svg" aria-labelledby="store-name" preserveAspectRatio="none">
<title id="store-name">Google Play 應用程式</title>
<rect width="135" height="40" fill="white"/>
<path d="M130.029 40H4.97065C2.23319 40 0 37.7658 0 35.027V4.97297C0 2.23423 2.23319 0 4.97065 0H130.029C132.767 0 135 2.23423 135 4.97297V35.027C135 37.7658 132.767 40 130.029 40Z" fill="#282828"/>
<path d="M130.029 0H4.97065C2.23319 0 0 2.23423 0 4.97297V35.027C0 37.7658 2.23319 40 4.97065 40H130.029C132.767 40 135 37.7658 135 35.027V4.97297C135 2.23423 132.767 0 130.029 0ZM130.029 0.792793C132.335 0.792793 134.208 2.66667 134.208 4.97297V35.027C134.208 37.3333 132.335 39.2072 130.029 39.2072H4.97065C2.66542 39.2072 0.792423 37.3333 0.792423 35.027V4.97297C0.792423 2.66667 2.66542 0.792793 4.97065 0.792793H130.029Z" fill="#A8A8A8"/>
<path d="M98.739 20.0364H100.397V9.08144H98.739V20.0364ZM113.442 13.0454L111.568 17.8022H111.496L109.55 13.0454H107.82L110.703 19.676L109.045 23.3517H110.775L115.243 13.0454H113.442ZM104.216 18.8112C103.712 18.8112 102.919 18.5229 102.919 17.8742C102.919 17.0094 103.856 16.7211 104.649 16.7211C105.37 16.7211 105.73 16.8652 106.162 17.0814C106.018 18.0905 105.153 18.8112 104.216 18.8112ZM104.433 12.8292C103.279 12.8292 102.054 13.3337 101.55 14.4868L102.991 15.0634C103.279 14.4868 103.856 14.2706 104.505 14.2706C105.37 14.2706 106.234 14.7751 106.234 15.7121V15.8562C105.946 15.7121 105.298 15.4238 104.505 15.4238C102.919 15.4238 101.334 16.2886 101.334 17.8742C101.334 19.3157 102.631 20.2526 104.072 20.2526C105.153 20.2526 105.802 19.7481 106.162 19.1715H106.234V20.0364H107.82V15.8562C107.82 13.9103 106.379 12.8292 104.505 12.8292H104.433ZM94.3426 14.4148H92.0362V10.667H94.3426C95.5678 10.667 96.2885 11.676 96.2885 12.5409C96.2885 13.4058 95.5678 14.4148 94.3426 14.4148ZM94.2705 9.15351H90.3786V20.1085H92.0362V16.0004H94.3426C96.1444 16.0004 97.9462 14.7031 97.9462 12.613C97.9462 10.5229 96.1444 9.22559 94.3426 9.22559L94.2705 9.15351ZM72.9372 18.8832C71.784 18.8832 70.8471 17.9463 70.8471 16.649C70.8471 15.3517 71.784 14.4148 72.9372 14.4148C74.0182 14.4148 74.9552 15.3517 74.9552 16.649C74.9552 17.9463 74.0903 18.8832 72.9372 18.8832ZM74.811 13.7661H74.739C74.3786 13.3337 73.6579 12.9013 72.793 12.9013C70.9191 12.9013 69.2615 14.5589 69.2615 16.649C69.2615 18.7391 70.9912 20.3247 72.793 20.3247C73.6579 20.3247 74.3786 19.9643 74.739 19.4598H74.811V19.9643C74.811 21.4058 74.0182 22.1265 72.793 22.1265C71.784 22.1265 71.2074 21.4058 70.9191 20.8292L69.4777 21.4058C69.9101 22.4148 70.9912 23.64 72.793 23.64C74.739 23.64 76.3245 22.4868 76.3245 19.7481V13.0454H74.739V13.622L74.811 13.7661ZM77.4777 20.1805H79.1353V9.22559H77.4777V20.1805ZM81.5137 16.5769C81.4417 15.1355 82.5948 14.4148 83.4597 14.4148C84.1083 14.4148 84.6849 14.7031 84.829 15.2076L81.5137 16.5769ZM86.5588 15.3517C86.2705 14.4868 85.3335 12.9733 83.3876 12.9733C81.4417 12.9733 79.8561 14.4868 79.8561 16.7211C79.8561 18.8112 81.4417 20.4688 83.5317 20.4688C85.2615 20.4688 86.1984 19.4598 86.6308 18.8112L85.3335 17.9463C84.9011 18.595 84.3245 18.9553 83.5317 18.9553C82.6669 18.9553 82.0903 18.595 81.7299 17.8022L86.7029 15.7121L86.5588 15.2796V15.3517ZM46.9191 14.1265V15.7121H50.6669C50.5227 16.5769 50.2345 17.2256 49.802 17.7301C49.2254 18.3067 48.3606 18.8832 46.9191 18.8832C44.6128 18.8832 42.739 17.0094 42.739 14.7031C42.739 12.3968 44.5408 10.5229 46.9191 10.5229C48.1444 10.5229 49.0813 11.0274 49.802 11.676L50.8831 10.595C49.9462 9.65802 48.6489 9.00937 46.9191 9.00937C43.748 9.00937 41.0813 11.604 41.0813 14.7751C41.0813 17.9463 43.748 20.5409 46.9191 20.5409C48.6489 20.5409 49.9462 19.9643 50.9552 18.9553C51.9642 17.9463 52.3245 16.4328 52.3245 15.2796C52.3245 14.9193 52.3245 14.5589 52.2525 14.2706H46.9191V14.1265ZM56.6489 18.9553C55.4957 18.9553 54.5588 18.0184 54.5588 16.7211C54.5588 15.3517 55.4957 14.4868 56.6489 14.4868C57.802 14.4868 58.739 15.4238 58.739 16.7211C58.739 18.0184 57.802 18.9553 56.6489 18.9553ZM56.6489 12.9733C54.5588 12.9733 52.9011 14.5589 52.9011 16.7211C52.9011 18.8832 54.5588 20.4688 56.6489 20.4688C58.739 20.4688 60.3966 18.8832 60.3966 16.7211C60.3966 14.5589 58.739 12.9733 56.6489 12.9733ZM64.793 18.9553C63.6399 18.9553 62.7029 18.0184 62.7029 16.7211C62.7029 15.3517 63.6399 14.4868 64.793 14.4868C65.9462 14.4868 66.8831 15.4238 66.8831 16.7211C66.8831 18.0184 65.9462 18.9553 64.793 18.9553ZM64.793 12.9733C62.7029 12.9733 61.0453 14.5589 61.0453 16.7211C61.0453 18.8832 62.7029 20.4688 64.793 20.4688C66.8831 20.4688 68.5408 18.8832 68.5408 16.7211C68.5408 14.5589 66.8831 12.9733 64.793 12.9733Z" fill="#FEFEFE"/>
<path d="M10.4454 7.56806C10.1571 7.85634 10.0129 8.36085 10.0129 8.93742V31.0635C10.0129 31.7122 10.1571 32.1446 10.4454 32.505L10.5174 32.5771L22.9138 20.1807V19.8924L10.5174 7.49598L10.4454 7.56806Z" fill="#64C9F3"/>
<path fill-rule="evenodd" clip-rule="evenodd" d="M27.0202 24.2884L22.9121 20.1803V19.892L27.0202 15.7839L27.0923 15.8559L31.9932 18.6668C33.3626 19.4595 33.3626 20.7568 31.9932 21.5496L27.0923 24.3604L27.0202 24.4325V24.2884Z" fill="url(#paint0_linear)"/>
<path fill-rule="evenodd" clip-rule="evenodd" d="M27.0944 24.2166L22.8421 19.9644L10.3737 32.4328C10.8061 32.9373 11.5989 33.0094 12.4637 32.5049L27.0944 24.2166Z" fill="url(#paint1_linear)"/>
<path fill-rule="evenodd" clip-rule="evenodd" d="M27.0944 15.7837L12.4637 7.49546C11.5989 6.99095 10.8782 7.06303 10.3737 7.56753L22.8421 20.036L27.0944 15.7837Z" fill="url(#paint2_linear)"/>
<path d="M44.424 25.544C44.344 25.2 44.168 24.68 44.008 24.272L43.432 24.424C43.584 24.832 43.752 25.376 43.816 25.72L44.424 25.544ZM47.224 25.816H40.8V26.4H47.224V25.816ZM43.288 30.184C43.144 29.264 42.808 27.904 42.496 26.832L41.904 26.976C42.208 28.024 42.544 29.424 42.656 30.336L43.288 30.184ZM44.968 30.68C45.376 29.672 45.856 28.152 46.184 26.96L45.512 26.832C45.256 28 44.76 29.656 44.328 30.68H40.456V31.272H47.544V30.68H44.968ZM51.352 25.264V26.304H49.48V25.264H51.352ZM49.48 27.944V26.84H51.352V27.944H49.48ZM50.536 29.128C50.68 29.376 50.848 29.664 51.008 29.952L49.48 30.448V28.48H51.936V24.728H48.888V30.264C48.888 30.568 48.688 30.704 48.552 30.768C48.648 30.92 48.76 31.208 48.8 31.376C48.968 31.248 49.232 31.136 51.248 30.424C51.4 30.72 51.528 31.008 51.616 31.224L52.152 30.928C51.928 30.4 51.448 29.536 51.04 28.888L50.536 29.128ZM55.288 24.776H52.672V31.616H53.256V25.336H54.704V29.352C54.704 29.464 54.664 29.496 54.552 29.496C54.448 29.504 54.08 29.504 53.664 29.488C53.752 29.656 53.816 29.896 53.84 30.056C54.424 30.064 54.784 30.056 55 29.952C55.216 29.856 55.288 29.688 55.288 29.352V24.776ZM63.536 25.488V24.896H56.472V25.488H59.528V31.6H60.16V27.392C61.072 27.88 62.144 28.536 62.688 28.984L63.104 28.448C62.472 27.968 61.216 27.248 60.264 26.792L60.16 26.912V25.488H63.536ZM71.384 25.528C71.168 25.208 70.688 24.752 70.28 24.424L69.856 24.712C70.256 25.048 70.72 25.528 70.928 25.848L71.384 25.528ZM65.368 29.12H66.432V29.576H65.368V29.12ZM65.368 28.344H66.432V28.784H65.368V28.344ZM67.92 28.784H66.896V28.344H67.92V28.784ZM67.92 29.576H66.896V29.12H67.92V29.576ZM70.688 27.008C70.48 27.752 70.184 28.48 69.824 29.12C69.672 28.424 69.568 27.544 69.504 26.552H71.576V26.072H69.48C69.456 25.52 69.448 24.936 69.456 24.328H68.864C68.864 24.928 68.88 25.512 68.904 26.072H66.952V25.432H68.352V24.952H66.952V24.312H66.384V24.952H64.856V25.432H66.384V26.072H64.456V26.552H68.928C69 27.824 69.152 28.944 69.392 29.8C69.168 30.128 68.912 30.416 68.656 30.672V30.368H66.928V29.928H68.384V27.992H66.936V27.568H68.632V27.112H66.936V26.624H66.392V27.112H64.664V27.568H66.392V27.992H64.92V29.928H66.4V30.368H64.544V30.824H66.4V31.624H66.928V30.824H68.496C68.344 30.952 68.208 31.064 68.048 31.176C68.208 31.288 68.384 31.464 68.48 31.608C68.904 31.288 69.288 30.904 69.632 30.464C69.92 31.144 70.312 31.544 70.84 31.544C71.4 31.544 71.584 31.184 71.68 29.984C71.536 29.936 71.336 29.8 71.208 29.68C71.168 30.608 71.08 30.96 70.888 30.96C70.544 30.96 70.248 30.568 70.032 29.888C70.544 29.08 70.944 28.144 71.224 27.16L70.688 27.008Z" fill="white"/>
<defs>
<linearGradient id="paint0_linear" x1="33.4116" y1="20.0123" x2="22.896" y2="20.0123" gradientUnits="userSpaceOnUse">
<stop stop-color="#FBE125"/>
<stop offset="1" stop-color="#F89E32"/>
</linearGradient>
<linearGradient id="paint1_linear" x1="25.7579" y1="19.5387" x2="11.7975" y2="33.4991" gradientUnits="userSpaceOnUse">
<stop stop-color="#EF5051"/>
<stop offset="1" stop-color="#C73172"/>
</linearGradient>
<linearGradient id="paint2_linear" x1="11.7975" y1="6.52501" x2="25.7579" y2="20.4854" gradientUnits="userSpaceOnUse">
<stop stop-color="#35A175"/>
<stop offset="0.4" stop-color="#56B172"/>
<stop offset="1" stop-color="#77C26F"/>
</linearGradient>
</defs>
</svg>
